<svg xmlns="http://www.w3.org/2000/svg" width="18" height="18" fill="none"><path d="M3.273 17.317h11.454A2.273 2.273 0 0 0 17 15.044v-7a1.778 1.778 0 0 0-.63-1.357L10.148 1.42a1.778 1.778 0 0 0-2.296 0L1.629 6.687A1.777 1.777 0 0 0 1 8.044v7a2.273 2.273 0 0 0 2.273 2.273v0Z" stroke="#676E89" stroke-linecap="round" stroke-linejoin="round"/><path d="M6.778 17.317v-5.466a.735.735 0 0 1 .735-.735h2.974a.736.736 0 0 1 .735.735v5.466" stroke="#676E89" stroke-linecap="round" stroke-linejoin="round"/></svg>