<svg xmlns="http://www.w3.org/2000/svg" width="24" height="24" fill="none"><path d="M19.714 8.266a.637.637 0 0 0 .055-.071v0a.555.555 0 0 0 .031-.571A8.205 8.205 0 0 0 18.31 5.62a.663.663 0 0 0-.762-.108v0c-1.57.941-3.559 0-3.873-1.884v0a.672.672 0 0 0-.528-.501A6.774 6.774 0 0 0 11.896 3c-.474 0-.828.06-1.198.133a.465.465 0 0 0-.372.457v0a.436.436 0 0 1-.007.076c-.334 1.858-2.306 2.781-3.866 1.846v0a.654.654 0 0 0-.759.111c-.59.596-1.07 1.294-1.483 2.005a.538.538 0 0 0 .02.569v0a.615.615 0 0 0 .054.068c1.218 1.362.69 3.53-.971 4.154v0a.412.412 0 0 0-.281.433c.1.925.276 1.836.58 2.625a.46.46 0 0 0 .434.29v0c1.772-.104 3.232 1.557 2.726 3.329a.235.235 0 0 1-.015.04v0a.237.237 0 0 0 .083.306c.86.553 1.805 1.01 2.836 1.22.078.016.16-.01.216-.066v0c.01-.01.018-.02.026-.031 1.047-1.444 3.221-1.443 4.268.001.007.01.015.02.024.029v0c.056.056.14.078.216.056 1.061-.298 2.029-.693 2.82-1.352a.11.11 0 0 0 .006-.163v0a.11.11 0 0 1-.028-.047c-.502-1.77.854-3.426 2.728-3.322v0c.19 0 .361-.115.428-.292.322-.849.563-1.704.61-2.62a.439.439 0 0 0-.305-.436v0c-1.66-.727-2.189-2.792-.972-4.153Z" stroke="#676E89" stroke-miterlimit="10" stroke-linecap="round" stroke-linejoin="round"/><path d="M12.229 15.34a3.244 3.244 0 1 0-.457-6.472 3.244 3.244 0 0 0 .457 6.472Z" stroke="#676E89" stroke-miterlimit="10" stroke-linecap="round" stroke-linejoin="round"/></svg>